<?xml version="1.0" standalone="no"?>
<!DOCTYPE svg PUBLIC "-//W3C//DTD SVG 20010904//EN"
 "http://www.w3.org/TR/2001/REC-SVG-20010904/DTD/svg10.dtd">
<svg version="1.0" xmlns="http://www.w3.org/2000/svg"
 width="64.000000pt" height="64.000000pt" viewBox="0 0 64.000000 64.000000"
 preserveAspectRatio="xMidYMid meet">

<g transform="translate(0.000000,64.000000) scale(0.100000,-0.100000)"
fill="#000000" stroke="none">
<path d="M98 579 c-45 -34 -84 -63 -85 -64 -2 -1 -5 -15 -9 -31 -6 -29 -2 -32
170 -144 l175 -115 3 -98 3 -99 130 94 c71 51 135 104 142 118 17 34 18 251 0
271 -23 29 -154 119 -172 119 -10 0 -37 -16 -61 -35 -23 -19 -50 -35 -59 -35
-9 0 -42 18 -72 40 -31 22 -62 40 -69 40 -7 0 -50 -28 -96 -61z"/>
</g>
</svg>
