<svg width="328" height="414" viewBox="0 0 328 414" fill="none" xmlns="http://www.w3.org/2000/svg">
<path d="M111.566 361.532L110.998 362.92L111.1 362.962L111.207 362.988L111.566 361.532ZM268.154 363.267V361.767H268.017L267.883 361.792L268.154 363.267ZM113.887 262.332L115.351 262.656L116.124 259.169L113.093 261.059L113.887 262.332ZM95.6628 355.582L96.3818 356.898L97.7229 356.165L96.9656 354.838L95.6628 355.582ZM83.2398 373.026L82.6715 374.414L84.3749 375.111L84.7141 373.302L83.2398 373.026ZM74.4364 368.831L73.6861 370.13L73.7011 370.139L73.7163 370.147L74.4364 368.831ZM169.35 163.787L169.194 165.279L171.046 165.472L170.841 163.622L169.35 163.787ZM176.43 153.046L176.805 151.594L176.28 151.459L175.79 151.69L176.43 153.046ZM201.312 152.967L201.903 151.589L201.461 151.399L200.99 151.502L201.312 152.967ZM207.607 163.665L206.138 163.359L205.942 164.303L206.719 164.874L207.607 163.665ZM207.622 163.676L206.734 164.885L207.109 165.161L207.575 165.175L207.622 163.676ZM293.82 208.317L292.692 209.305L292.692 209.305L293.82 208.317ZM300.161 326.403L299.546 325.035L299.546 325.035L300.161 326.403ZM271.552 332.229L271.501 330.73L270.026 330.779L270.052 332.255L271.552 332.229ZM169.35 163.79L170.841 163.624L170.547 160.988L168.439 162.598L169.35 163.79ZM169.294 163.833L168.382 162.642L170.126 165.081L169.294 163.833ZM169.351 163.795L170.182 165.044L170.953 164.531L170.839 163.612L169.351 163.795ZM111.207 362.988C146.851 371.774 186.168 372.201 216.522 370.447C231.709 369.57 244.676 368.145 253.848 366.939C258.435 366.337 262.074 365.788 264.569 365.39C265.816 365.191 266.777 365.03 267.428 364.918C267.754 364.862 268.001 364.818 268.169 364.788C268.252 364.774 268.315 364.762 268.358 364.754C268.38 364.751 268.396 364.748 268.407 364.746C268.413 364.745 268.417 364.744 268.42 364.743C268.421 364.743 268.422 364.743 268.423 364.743C268.424 364.743 268.425 364.742 268.154 363.267C267.883 361.792 267.883 361.792 267.883 361.792C267.882 361.792 267.881 361.792 267.88 361.792C267.878 361.793 267.874 361.793 267.87 361.794C267.86 361.796 267.845 361.799 267.825 361.802C267.785 361.81 267.724 361.82 267.643 361.835C267.482 361.864 267.239 361.906 266.92 361.961C266.28 362.071 265.331 362.231 264.096 362.428C261.626 362.822 258.014 363.366 253.457 363.965C244.342 365.163 231.45 366.58 216.349 367.452C186.125 369.198 147.148 368.757 111.925 360.075L111.207 362.988ZM112.422 262.007C102.24 307.986 101.616 332.996 103.617 346.585C104.619 353.392 106.29 357.403 107.809 359.758C108.57 360.938 109.291 361.7 109.866 362.184C110.153 362.425 110.401 362.595 110.595 362.712C110.693 362.77 110.776 362.815 110.844 362.849C110.878 362.866 110.908 362.88 110.933 362.892C110.946 362.898 110.958 362.903 110.969 362.908C110.974 362.91 110.979 362.912 110.984 362.914C110.987 362.915 110.99 362.917 110.991 362.917C110.995 362.919 110.998 362.92 111.566 361.532C112.134 360.144 112.138 360.145 112.141 360.146C112.142 360.147 112.145 360.148 112.147 360.149C112.15 360.15 112.154 360.152 112.157 360.153C112.163 360.156 112.169 360.158 112.173 360.16C112.182 360.164 112.186 360.166 112.187 360.167C112.188 360.167 112.172 360.159 112.142 360.141C112.083 360.106 111.964 360.027 111.798 359.888C111.467 359.61 110.94 359.078 110.33 358.132C109.106 356.235 107.544 352.664 106.585 346.148C104.663 333.094 105.198 308.504 115.351 262.656L112.422 262.007ZM113.093 261.059C94.6764 272.543 83.9497 285.978 80.933 301.907C77.9252 317.787 82.6503 335.803 94.3599 356.325L96.9656 354.838C85.4226 334.609 81.0619 317.347 83.8806 302.465C86.6902 287.63 96.7019 274.816 114.681 263.604L113.093 261.059ZM94.9437 354.265C89.4872 357.245 86.1997 361.891 84.2858 365.722C83.326 367.643 82.7001 369.381 82.313 370.644C82.1191 371.276 81.9844 371.791 81.8971 372.154C81.8534 372.335 81.8216 372.478 81.8002 372.579C81.7895 372.629 81.7813 372.669 81.7756 372.698C81.7728 372.712 81.7705 372.723 81.7688 372.732C81.768 372.736 81.7673 372.74 81.7668 372.743C81.7665 372.744 81.7662 372.746 81.766 372.747C81.7659 372.747 81.7658 372.748 81.7658 372.748C81.7656 372.749 81.7655 372.749 83.2398 373.026C84.7141 373.302 84.7141 373.303 84.714 373.303C84.714 373.303 84.7139 373.304 84.7138 373.304C84.7138 373.304 84.7137 373.304 84.7137 373.304C84.7137 373.304 84.7139 373.304 84.7141 373.302C84.7147 373.299 84.7158 373.294 84.7175 373.285C84.7208 373.269 84.7264 373.241 84.7345 373.203C84.7506 373.127 84.7766 373.01 84.8138 372.856C84.8881 372.547 85.0069 372.091 85.1812 371.523C85.5301 370.385 86.0982 368.806 86.9695 367.062C88.718 363.563 91.642 359.487 96.3818 356.898L94.9437 354.265ZM83.8082 371.638C80.8492 370.426 77.9608 369.05 75.1565 367.515L73.7163 370.147C76.619 371.735 79.6087 373.16 82.6715 374.414L83.8082 371.638ZM75.1867 367.532C42.6415 348.733 28.9671 326.445 27.2808 303.822C25.5869 281.098 35.9539 257.643 52.3402 236.529C68.7092 215.437 90.9539 196.854 112.662 183.923C123.513 177.46 134.2 172.426 143.921 169.195C153.664 165.957 162.336 164.564 169.194 165.279L169.505 162.295C162.054 161.519 152.922 163.043 142.975 166.348C133.008 169.661 122.123 174.796 111.127 181.346C89.1419 194.442 66.5991 213.262 49.9702 234.69C33.3585 256.094 22.5173 280.276 24.2891 304.045C26.0684 327.916 40.5336 350.98 73.6861 370.13L75.1867 367.532ZM175.79 151.69C167.114 155.784 167.807 163.481 167.859 163.952L170.841 163.622C170.841 163.628 170.799 163.247 170.845 162.624C170.891 162.002 171.025 161.152 171.369 160.209C172.045 158.361 173.561 156.059 177.071 154.403L175.79 151.69ZM200.99 151.502C194.373 152.956 188.306 152.977 183.89 152.631C181.684 152.459 179.898 152.196 178.669 151.977C178.055 151.868 177.581 151.77 177.264 151.7C177.106 151.666 176.987 151.638 176.909 151.619C176.871 151.61 176.843 151.603 176.825 151.599C176.816 151.597 176.81 151.595 176.807 151.594C176.805 151.594 176.804 151.594 176.804 151.594C176.803 151.593 176.803 151.593 176.804 151.594C176.804 151.594 176.804 151.594 176.804 151.594C176.804 151.594 176.805 151.594 176.43 153.046C176.056 154.499 176.057 154.499 176.057 154.499C176.057 154.499 176.058 154.499 176.058 154.499C176.059 154.5 176.06 154.5 176.061 154.5C176.064 154.501 176.067 154.502 176.071 154.503C176.078 154.505 176.088 154.507 176.101 154.51C176.127 154.517 176.164 154.526 176.212 154.537C176.306 154.56 176.443 154.592 176.62 154.63C176.974 154.708 177.487 154.814 178.144 154.931C179.456 155.164 181.341 155.441 183.656 155.622C188.282 155.984 194.656 155.965 201.634 154.432L200.99 151.502ZM209.075 163.971C209.977 159.647 208.085 156.484 206.092 154.5C205.102 153.515 204.068 152.795 203.288 152.323C202.895 152.086 202.561 151.907 202.319 151.786C202.199 151.725 202.101 151.678 202.03 151.646C201.995 151.629 201.966 151.616 201.945 151.607C201.934 151.602 201.925 151.598 201.919 151.595C201.915 151.594 201.912 151.592 201.91 151.591C201.908 151.591 201.907 151.59 201.906 151.59C201.906 151.589 201.905 151.589 201.905 151.589C201.904 151.589 201.903 151.589 201.312 152.967C200.721 154.346 200.72 154.345 200.72 154.345C200.719 154.345 200.719 154.345 200.719 154.345C200.718 154.344 200.718 154.344 200.717 154.344C200.717 154.344 200.717 154.344 200.717 154.344C200.717 154.344 200.72 154.345 200.724 154.347C200.732 154.351 200.747 154.358 200.769 154.368C200.812 154.388 200.881 154.42 200.971 154.466C201.152 154.557 201.417 154.698 201.734 154.89C202.373 155.276 203.2 155.855 203.976 156.627C205.513 158.157 206.768 160.343 206.138 163.359L209.075 163.971ZM208.51 162.467L208.495 162.456L206.719 164.874L206.734 164.885L208.51 162.467ZM294.949 207.329C257.044 164.014 209.073 162.22 207.669 162.177L207.575 165.175C208.673 165.209 255.605 166.924 292.692 209.305L294.949 207.329ZM300.777 327.771C312.216 322.623 319.486 314.564 323.421 304.827C327.34 295.128 327.914 283.858 326.166 272.276C322.673 249.131 309.851 224.343 294.949 207.329L292.692 209.305C307.278 225.959 319.805 250.232 323.2 272.723C324.895 283.958 324.298 294.649 320.639 303.703C316.997 312.717 310.285 320.202 299.546 325.035L300.777 327.771ZM271.602 333.728C282.323 333.37 292.396 331.545 300.777 327.771L299.546 325.035C291.631 328.6 281.976 330.38 271.501 330.73L271.602 333.728ZM268.154 364.767C269.213 364.767 269.855 363.99 270.161 363.517C270.513 362.973 270.794 362.265 271.031 361.49C271.51 359.918 271.914 357.692 272.235 354.95C272.88 349.445 273.218 341.614 273.051 332.202L270.052 332.255C270.217 341.584 269.88 349.273 269.255 354.601C268.942 357.277 268.563 359.297 268.161 360.616C267.957 361.286 267.773 361.686 267.642 361.887C267.466 362.16 267.607 361.767 268.154 361.767V364.767ZM168.439 162.598C168.42 162.613 168.401 162.628 168.382 162.642L170.206 165.024C170.224 165.01 170.242 164.996 170.261 164.982L168.439 162.598ZM168.519 162.547C168.5 162.56 168.481 162.573 168.462 162.585L170.126 165.081C170.145 165.069 170.163 165.056 170.182 165.044L168.519 162.547ZM167.859 163.956C167.86 163.961 167.86 163.965 167.861 163.969C167.861 163.971 167.861 163.973 167.861 163.975C167.862 163.975 167.862 163.976 167.862 163.977C167.862 163.977 167.862 163.978 167.862 163.978C167.862 163.978 167.862 163.979 167.862 163.979C167.862 163.979 167.862 163.979 167.862 163.979C167.862 163.979 167.862 163.979 167.862 163.979C167.862 163.979 167.862 163.979 167.862 163.979C167.862 163.979 167.862 163.979 167.862 163.979C167.862 163.979 167.862 163.979 169.351 163.795C170.839 163.612 170.839 163.612 170.839 163.612C170.839 163.612 170.839 163.612 170.839 163.612C170.839 163.612 170.839 163.612 170.839 163.612C170.839 163.612 170.839 163.612 170.839 163.612C170.839 163.612 170.839 163.612 170.839 163.612C170.839 163.612 170.84 163.612 170.84 163.613C170.84 163.613 170.84 163.613 170.84 163.614C170.84 163.614 170.84 163.615 170.84 163.616C170.84 163.617 170.84 163.618 170.84 163.619C170.841 163.621 170.841 163.623 170.841 163.624L167.859 163.956Z" fill="#252532"/>
<path d="M278.753 414H99.8052C100.685 407.146 101.914 399.136 103.617 390.764C105.579 381.087 108.17 370.93 111.569 361.532L268.159 363.267C268.159 363.267 275.87 384.88 278.753 414Z" fill="#252532"/>
<path d="M201 139H176L175 164.5H201.5L201 139Z" fill="#D6D8DE"/>
<path d="M229.718 102.293C226.699 116.213 209.662 112.62 212.547 98.669C215.569 84.749 232.604 88.3448 229.718 102.293Z" fill="#E0E1E4"/>
<path d="M146.47 102.293C149.492 116.213 166.527 112.62 163.641 98.669C160.622 84.749 143.587 88.3448 146.47 102.293Z" fill="#E0E1E4"/>
<g style="mix-blend-mode:multiply" opacity="0.3">
<path d="M223.113 117.331C221.171 163.944 146.244 157.11 153.637 110.301C154.663 101.016 157.998 94.8453 159.555 80.0449C163.169 45.7938 211.955 43.9588 216.341 79.789C218.057 93.9188 223.223 104.335 223.113 117.331Z" fill="#D8DEE8"/>
</g>
<path d="M197.49 96.3501C196.367 94.2207 199.742 92.5111 200.804 94.6712C201.925 96.8005 198.562 98.5101 197.49 96.3501Z" fill="#252532"/>
<path d="M175.22 96.3938C174.096 94.2644 177.472 92.5548 178.534 94.7149C179.65 96.8416 176.271 98.5538 175.22 96.3938Z" fill="#252532"/>
<path d="M186.463 110.925C183.061 110.884 177.772 108.596 182.074 105.579C185.588 103.68 188.166 96.4218 188.192 96.3475C188.476 95.4876 189.833 95.9534 189.518 96.8108C189.405 97.1307 186.73 104.658 182.743 106.813C179.988 108.497 185.732 110.127 188.097 109.292C188.275 109.236 188.468 109.252 188.634 109.338C188.799 109.423 188.925 109.571 188.982 109.748C189.182 111.007 187.345 110.831 186.463 110.925Z" fill="#252532"/>
<g style="mix-blend-mode:multiply" opacity="0.3">
<path d="M165.149 77.8719C182.004 85.6829 201.34 60.2537 211.662 71.9139L212.927 64.7863L193.273 55.5881L161.907 66.4856L165.149 77.8719Z" fill="#D6D6D7"/>
</g>
<path d="M218.404 90.579C218.404 90.579 212.527 79.3334 211.663 71.914C210.798 64.4946 200.81 63.197 192.604 69.0066C184.398 74.8162 174.158 77.4523 163.395 73.4982C152.631 69.5441 145.67 53.2567 156.618 43.6542C167.458 34.1464 178.732 41.5556 188.482 45.2384C201.066 49.9911 232.679 40.4014 218.404 90.579Z" fill="#252532"/>
<path d="M158.128 90.0466C158.128 90.0466 166.926 80.1012 167.457 66.8952L158.033 63.197C158.033 63.197 154.185 76.0473 158.128 90.0466Z" fill="#252532"/>
<path d="M226.153 105.07C226.045 105.069 225.94 105.043 225.844 104.995C225.749 104.947 225.666 104.877 225.602 104.791C225.539 104.705 225.496 104.605 225.477 104.5C225.459 104.395 225.465 104.287 225.496 104.184C227.899 97.3432 225.404 93.8472 219.991 95.9177C219.17 96.2581 218.652 94.9528 219.491 94.638C225.211 92.3014 229.911 95.9177 226.809 104.578C226.767 104.72 226.68 104.844 226.562 104.932C226.444 105.021 226.3 105.069 226.153 105.07V105.07Z" fill="#252532"/>
<path d="M150.469 105.07C150.322 105.069 150.179 105.021 150.061 104.934C149.943 104.846 149.856 104.724 149.812 104.583C146.708 95.9203 151.423 92.2988 157.133 94.6432C157.961 94.9554 157.459 96.253 156.633 95.9228C151.733 93.9163 148.535 96.9465 151.128 104.189C151.157 104.292 151.162 104.399 151.143 104.504C151.124 104.608 151.081 104.707 151.017 104.792C150.953 104.878 150.87 104.947 150.775 104.995C150.68 105.043 150.575 105.069 150.469 105.07V105.07Z" fill="#252532"/>
<path d="M223.116 110.754C223.116 110.734 223.116 110.718 223.116 110.7C222.569 107.373 222.028 104.481 221.471 101.917C221.335 101.282 221.198 100.667 221.061 100.072C220.717 98.5897 220.368 97.2154 220.012 95.9127C219.89 95.4622 219.768 95.0195 219.645 94.5844C219.245 93.1921 218.834 91.8741 218.411 90.5817V90.5586C218.327 90.3027 218.242 90.0468 218.155 89.7908C217.306 87.2469 216.39 84.7593 215.387 81.9824C215.497 82.9242 215.702 84.0862 215.964 85.4119C216.305 87.1215 216.734 89.1024 217.193 91.2292C217.962 94.8301 218.799 98.8533 219.327 102.697C219.391 103.155 219.45 103.611 219.504 104.059C219.811 106.386 219.926 108.734 219.848 111.079C219.504 117.969 216.467 121.897 207.135 116.94C193.771 109.853 179.432 113.027 167.473 118.683C161.83 120.789 156.045 120.403 156.784 112.013C156.812 111.691 156.841 111.358 156.871 111.015C157.297 106.014 157.8 99.1348 159.062 91.2522C159.221 90.2566 159.39 89.2457 159.575 88.222C159.806 86.9423 160.055 85.6345 160.332 84.3139C159.48 85.6345 158.777 87.641 158.141 90.0519C158.087 90.2464 158.039 90.446 157.987 90.6482C157.88 91.0679 157.777 91.4953 157.674 91.9279C157.674 91.9662 157.656 91.9995 157.651 92.0379C157.531 92.5344 157.418 93.0437 157.305 93.5735C157.305 93.6144 157.287 93.6503 157.279 93.6886C157.21 93.9983 157.143 94.3157 157.077 94.633C156.984 95.0758 156.889 95.5237 156.797 95.9792C156.502 97.4201 156.207 98.9199 155.899 100.438C155.766 101.103 155.643 101.773 155.494 102.444C154.943 105.108 154.347 107.79 153.65 110.316C153.624 110.496 153.596 110.675 153.573 110.851C153.388 112.153 153.261 113.423 153.191 114.66C153.191 114.828 153.17 114.995 153.165 115.171C152.313 133.278 163.092 144.404 176.446 148.391C184.594 150.803 193.294 150.612 201.328 147.843C214.818 143.101 225.324 130.786 223.116 110.754ZM170.2 123.039C175.086 119.745 181.666 117.209 188.222 116.948C194.252 116.742 200.23 118.112 205.565 120.922C215.279 126.773 208.015 138.162 199.152 138.469C192.242 138.668 193.358 129.227 188.145 129.363C183.951 129.468 184.621 143.621 171.518 138.064C165.216 135.479 164.557 126.849 170.2 123.049V123.039Z" fill="#252532"/>
<path d="M184.495 124.016C183.375 124.033 182.256 123.92 181.161 123.681C180.273 123.469 180.63 122.084 181.507 122.322C181.569 122.337 187.676 123.806 194.861 119.783C194.942 119.738 195.03 119.709 195.122 119.699C195.213 119.688 195.306 119.695 195.395 119.72C195.484 119.745 195.567 119.787 195.64 119.844C195.712 119.901 195.773 119.972 195.818 120.052C195.007 123.223 185.416 124.07 184.495 124.016Z" fill="#252532"/>
<path d="M207.61 163.662C207.626 163.693 207.649 163.724 207.664 163.754C188.449 168.727 169.31 163.772 169.351 163.785C169.351 163.785 168.492 156.783 176.431 153.036C176.431 153.036 187.718 155.943 201.313 152.957C201.315 152.964 209.142 156.322 207.61 163.662Z" fill="#252532"/>
<path d="M204.488 91.7947C204.378 91.7948 204.269 91.7686 204.171 91.7183C204.073 91.668 203.988 91.5951 203.924 91.5055C200.492 86.6966 194.02 88.053 193.953 88.0683C193.773 88.1081 193.585 88.075 193.43 87.9763C193.275 87.8777 193.166 87.7216 193.126 87.5424C193.086 87.3632 193.119 87.1756 193.218 87.0208C193.317 86.866 193.473 86.7568 193.653 86.717C193.956 86.6505 201.092 85.138 205.052 90.7044C205.127 90.8076 205.171 90.9292 205.18 91.0559C205.19 91.1825 205.164 91.3093 205.105 91.4221C205.047 91.535 204.958 91.6295 204.849 91.6953C204.74 91.761 204.615 91.7954 204.488 91.7947Z" fill="#252532"/>
<path d="M171.526 91.7945C171.382 91.795 171.242 91.7502 171.126 91.6666C171.052 91.6143 170.988 91.5479 170.94 91.4712C170.891 91.3944 170.859 91.3089 170.843 91.2195C170.828 91.13 170.831 91.0385 170.851 90.9501C170.871 90.8617 170.909 90.7781 170.962 90.7043C174.932 85.1404 182.061 86.6504 182.361 86.7169C182.541 86.7566 182.697 86.8659 182.796 87.0207C182.895 87.1754 182.928 87.3631 182.888 87.5423C182.848 87.7215 182.739 87.8775 182.584 87.9762C182.429 88.0748 182.241 88.1079 182.061 88.0682C181.987 88.0503 175.52 86.7015 172.09 91.5053C172.027 91.5954 171.942 91.6687 171.844 91.7191C171.745 91.7694 171.636 91.7953 171.526 91.7945Z" fill="#252532"/>
<path d="M111.566 361.532C116.614 366.016 123.327 367.198 123.338 367.244C131.42 369.443 139.362 372.457 147.622 373.898C153.347 374.896 152.239 379.444 147.088 378.863C138.962 377.945 130.671 376.35 122.56 375.229C122.545 375.27 138.428 384.233 146.637 387.276C152.734 389.536 150.623 392.906 145.387 391.509C136.384 389.088 119.003 382.492 119.003 382.492C119.003 382.492 132.813 391.977 140.429 395.404C146.234 398.017 144.12 401.012 138.905 399.55C129.72 396.973 120.965 392.896 112.8 387.957C112.772 387.977 122.655 396.812 128.106 400.589C132.952 403.95 130.394 406.834 125.857 404.392C119.385 400.912 112.895 397.421 107.036 392.952C102.519 389.725 94.3697 386.554 83.2397 373.028C80.141 369.24 90.9171 356.408 95.6626 355.584C100.113 354.816 106.254 355.758 107.398 355.61L111.566 361.532Z" stroke="#252532" stroke-width="3"/>
<path d="M95.6629 355.582C85.4665 361.151 83.24 373.026 83.24 373.026C80.2291 371.793 77.29 370.393 74.4365 368.831V368.831C74.4365 368.831 77.4274 357.36 91.8639 348.464C94.0289 352.889 95.6629 355.582 95.6629 355.582Z" fill="#252532"/>
<path d="M187.581 282.068H189.081V281.224L188.359 280.786L187.581 282.068ZM179.857 277.976L178.623 278.828L178.854 279.163L179.222 279.335L179.857 277.976ZM181.509 304.664L181.551 306.164L182.398 306.14L182.815 305.402L181.509 304.664ZM152.987 300.491L153.576 299.112L153.506 299.082L153.433 299.059L152.987 300.491ZM145.437 288.485L145.728 289.957L148.465 289.415L146.504 287.431L145.437 288.485ZM145.77 281.318L146.252 282.738L148.448 281.992L146.867 280.295L145.77 281.318ZM147.018 275.243L147.546 276.647L149.554 275.893L148.156 274.266L147.018 275.243ZM155.001 269.776L156.006 268.662L155.689 268.376L155.268 268.3L155.001 269.776ZM155.036 269.807L154.029 270.919L154.369 271.227L154.822 271.292L155.036 269.807ZM164.361 272.052L163.924 273.487L166.288 274.205L165.835 271.777L164.361 272.052ZM162.889 264.153L164.364 263.878L164.349 263.796L164.324 263.716L162.889 264.153ZM164.805 254.94L165.275 256.364L165.275 256.364L164.805 254.94ZM167.251 257.805L165.778 258.088L165.799 258.195L165.834 258.297L167.251 257.805ZM167.251 257.805L168.724 257.522L168.704 257.415L168.668 257.312L167.251 257.805ZM168.14 261.12L166.755 261.697L166.757 261.7L168.14 261.12ZM175.507 272.071L176.702 271.165L176.702 271.165L175.507 272.071ZM188.359 280.786C185.902 279.295 183.23 277.898 180.493 276.617L179.222 279.335C181.883 280.58 184.456 281.927 186.803 283.351L188.359 280.786ZM182.815 305.402C185.507 300.639 187.062 294.805 187.948 290.237C188.831 285.682 189.081 282.205 189.081 282.068H186.081C186.081 281.934 185.869 285.2 185.003 289.666C184.14 294.118 182.659 299.581 180.203 303.926L182.815 305.402ZM152.398 301.871C158.091 304.302 165.421 305.359 171.225 305.822C174.147 306.055 176.721 306.141 178.566 306.168C179.49 306.182 180.231 306.181 180.744 306.176C181.001 306.174 181.2 306.171 181.337 306.168C181.405 306.167 181.457 306.166 181.493 306.165C181.511 306.165 181.525 306.164 181.535 306.164C181.54 306.164 181.543 306.164 181.546 306.164C181.547 306.164 181.549 306.164 181.549 306.164C181.55 306.164 181.55 306.164 181.55 306.164C181.551 306.164 181.551 306.164 181.509 304.664C181.467 303.165 181.467 303.165 181.467 303.165C181.467 303.165 181.467 303.165 181.467 303.165C181.467 303.165 181.466 303.165 181.466 303.165C181.464 303.165 181.461 303.165 181.458 303.165C181.45 303.165 181.439 303.165 181.423 303.166C181.392 303.167 181.344 303.168 181.281 303.169C181.154 303.171 180.965 303.174 180.719 303.176C180.227 303.18 179.508 303.181 178.611 303.168C176.815 303.142 174.307 303.059 171.463 302.832C165.737 302.375 158.806 301.345 153.576 299.112L152.398 301.871ZM145.146 287.014C143.663 287.307 142.48 288.232 141.865 289.552C141.258 290.856 141.26 292.413 141.838 293.941C142.989 296.988 146.405 300.012 152.541 301.924L153.433 299.059C147.746 297.288 145.337 294.714 144.644 292.881C144.3 291.97 144.376 291.267 144.585 290.819C144.786 290.387 145.162 290.069 145.728 289.957L145.146 287.014ZM145.287 279.898C143.149 280.624 142.122 282.417 142.094 284.332C142.067 286.161 142.924 288.076 144.37 289.54L146.504 287.431C145.523 286.439 145.08 285.268 145.094 284.376C145.105 283.571 145.459 283.008 146.252 282.738L145.287 279.898ZM146.491 273.839C144.935 274.423 143.644 275.643 143.188 277.273C142.716 278.96 143.219 280.781 144.672 282.34L146.867 280.295C145.994 279.358 145.936 278.586 146.077 278.082C146.234 277.522 146.73 276.953 147.546 276.647L146.491 273.839ZM148.156 274.266C147.535 273.542 147.174 272.873 147.046 272.36C146.927 271.883 147.027 271.673 147.141 271.543C147.311 271.35 147.815 270.999 149.102 270.854C150.365 270.712 152.193 270.792 154.734 271.252L155.268 268.3C152.573 267.812 150.428 267.686 148.767 267.873C147.131 268.057 145.759 268.57 144.886 269.565C143.957 270.624 143.847 271.929 144.135 273.085C144.414 274.205 145.077 275.285 145.881 276.22L148.156 274.266ZM153.996 270.889C154.007 270.899 154.018 270.909 154.029 270.919L156.044 268.696C156.031 268.685 156.019 268.673 156.006 268.662L153.996 270.889ZM164.797 270.617C161.03 269.471 157.677 268.672 155.25 268.323L154.822 271.292C157.041 271.612 160.234 272.365 163.924 273.487L164.797 270.617ZM161.415 264.428L162.886 272.326L165.835 271.777L164.364 263.878L161.415 264.428ZM164.336 253.515C162.552 254.103 161.343 255.529 160.863 257.497C160.399 259.395 160.602 261.791 161.454 264.59L164.324 263.716C163.555 261.189 163.49 259.383 163.777 258.208C164.047 257.103 164.606 256.585 165.275 256.364L164.336 253.515ZM168.724 257.522C168.63 257.033 168.531 256.512 168.407 256.044C168.285 255.584 168.112 255.059 167.82 254.597C167.509 254.105 167.028 253.632 166.313 253.419C165.633 253.217 164.948 253.313 164.335 253.515L165.275 256.364C165.554 256.272 165.572 256.329 165.457 256.294C165.307 256.25 165.254 256.153 165.284 256.2C165.332 256.277 165.412 256.454 165.507 256.811C165.599 257.16 165.679 257.572 165.778 258.088L168.724 257.522ZM168.668 257.312L168.668 257.312L165.834 258.297L165.834 258.298L168.668 257.312ZM169.525 260.543C169.126 259.586 168.925 258.565 168.724 257.522L165.778 258.088C165.971 259.093 166.22 260.412 166.755 261.697L169.525 260.543ZM176.702 271.165C175.163 269.132 173.628 267.105 172.334 265.246C171.026 263.367 170.032 261.753 169.523 260.54L166.757 261.7C167.396 263.227 168.55 265.061 169.871 266.959C171.206 268.877 172.78 270.955 174.311 272.976L176.702 271.165ZM181.092 277.124C179.822 275.283 178.259 273.22 176.702 271.165L174.311 272.976C175.878 275.046 177.398 277.053 178.623 278.828L181.092 277.124Z" fill="#252532"/>
<path d="M231.06 285.577C223.924 285.577 216.515 285.321 209.972 285.086C202.943 284.83 196.874 284.625 194.281 284.896C194.025 284.923 193.769 284.848 193.569 284.687C193.369 284.526 193.241 284.292 193.214 284.036C193.187 283.781 193.262 283.526 193.424 283.326C193.586 283.126 193.82 282.999 194.076 282.972C196.808 282.685 202.646 282.89 210.039 283.151C227.115 283.752 252.917 284.661 259.268 279.757C262.718 277.098 262.523 267.293 258.722 252.158C255.746 240.303 251.581 229.188 251.54 229.078C251.449 228.838 251.458 228.571 251.564 228.338C251.671 228.104 251.866 227.922 252.107 227.832C252.347 227.741 252.614 227.75 252.849 227.856C253.083 227.962 253.265 228.157 253.356 228.397C253.399 228.51 257.604 239.727 260.607 251.687C264.711 268.066 264.673 278.048 260.459 281.29C256.006 284.722 243.965 285.577 231.06 285.577Z" fill="#252532"/>
<path d="M131.112 216.629C119.736 240.687 116 260 116 260C116 260 91.7993 275.58 84.1065 294.534C83.1437 296.926 82.4411 299.415 82.0107 301.956C83.6345 280.924 103.045 267.406 110.402 252.437C117.702 237.6 130.91 216.952 131.112 216.629Z" fill="#252532"/>
<path d="M270.491 333.19H270.47C240.792 332.64 219.281 326.198 206.46 320.89C192.521 315.119 185.711 309.547 185.426 309.312C185.328 309.231 185.247 309.131 185.188 309.019C185.128 308.906 185.092 308.783 185.08 308.657C185.068 308.53 185.081 308.403 185.119 308.281C185.157 308.16 185.218 308.047 185.299 307.949C185.381 307.851 185.48 307.77 185.593 307.711C185.706 307.652 185.829 307.615 185.956 307.604C186.083 307.592 186.211 307.605 186.332 307.643C186.454 307.68 186.567 307.741 186.665 307.822C186.758 307.899 193.619 313.494 207.296 319.142C219.948 324.368 241.184 330.71 270.503 331.255C270.761 331.257 271.006 331.361 271.187 331.544C271.367 331.727 271.467 331.974 271.465 332.23C271.463 332.487 271.359 332.732 271.176 332.912C270.993 333.092 270.745 333.192 270.488 333.19H270.491Z" fill="#252532"/>
<path d="M197.582 282.839C197.582 282.839 188.058 294.279 187.578 310.776C184.647 308.978 181.874 306.933 179.291 304.664C179.291 304.664 179.57 289.152 187.578 282.066C187.578 282.071 191.508 282.429 197.582 282.839Z" fill="#252532"/>
<path fill-rule="evenodd" clip-rule="evenodd" d="M12.8916 167.208C12.8485 167.192 12.8055 167.177 12.7625 167.161C12.4187 166.938 12.0824 166.704 11.7536 166.459L11.753 166.459C8.35489 163.925 5.95906 160.273 4.98718 156.146C4.01521 152.018 4.52977 147.68 6.44027 143.895C8.35077 140.11 11.5347 137.12 15.4317 135.452C19.3284 133.784 23.6882 133.545 27.7437 134.776L27.7477 134.777C28.0893 134.882 28.4278 134.994 28.7614 135.119L28.7739 135.127C32.2157 136.406 35.1845 138.707 37.2818 141.723C39.3826 144.743 40.5082 148.335 40.5071 152.014C40.5044 155.846 39.2797 159.576 37.0114 162.663C34.743 165.749 31.5492 168.031 27.8949 169.177C24.2405 170.322 20.316 170.271 16.6927 169.031C15.3507 168.572 14.076 167.958 12.8916 167.208ZM32.0725 151.997C32.0889 153.264 31.8536 154.522 31.3803 155.698C30.9069 156.873 30.2049 157.943 29.315 158.845C28.4251 159.747 27.365 160.463 26.1962 160.952C25.0275 161.44 23.7733 161.692 22.5065 161.692C21.2397 161.692 19.9856 161.44 18.8168 160.952C17.648 160.463 16.5879 159.747 15.698 158.845C14.8081 157.943 14.1061 156.873 13.6327 155.698C13.1594 154.522 12.9241 153.264 12.9405 151.997H32.0725ZM29.669 148.176C29.8815 147.858 29.9949 147.484 29.9949 147.101C29.9949 146.588 29.7912 146.096 29.4285 145.733C29.0658 145.371 28.5738 145.167 28.0609 145.167C27.6784 145.167 27.3045 145.28 26.9865 145.493C26.6684 145.705 26.4205 146.008 26.2741 146.361C26.1278 146.715 26.0895 147.104 26.1641 147.479C26.2387 147.854 26.4229 148.199 26.6934 148.47C26.9638 148.74 27.3085 148.924 27.6836 148.999C28.0588 149.074 28.4476 149.035 28.801 148.889C29.1544 148.743 29.4564 148.495 29.669 148.176Z" fill="url(#paint0_linear_329_164)"/>
<path d="M18.8895 147.102C18.8895 147.484 18.776 147.858 18.5635 148.176C18.351 148.495 18.049 148.743 17.6956 148.889C17.3422 149.036 16.9533 149.074 16.5781 148.999C16.203 148.925 15.8584 148.74 15.5879 148.47C15.3175 148.199 15.1333 147.854 15.0586 147.479C14.984 147.104 15.0223 146.715 15.1687 146.361C15.3151 146.008 15.563 145.705 15.881 145.493C16.199 145.28 16.573 145.167 16.9555 145.167C17.4684 145.167 17.9603 145.371 18.323 145.733C18.6857 146.096 18.8895 146.588 18.8895 147.102V147.102Z" fill="#F6F6F6"/>
<path fill-rule="evenodd" clip-rule="evenodd" d="M124.852 16.5083C124.852 16.5082 124.852 16.5081 124.852 16.508V54.1335C124.852 57.4522 123.534 60.6351 121.187 62.9818C119.133 65.0351 116.44 66.3012 113.575 66.5856C113.166 66.6263 112.753 66.6469 112.338 66.6469L112.338 66.6469H107.228V84.5224L83.1164 66.6578H12.5295C9.61014 66.6578 6.79593 65.6379 4.56325 63.7954C4.25383 63.5408 3.95626 63.271 3.67171 62.9868C2.50806 61.8247 1.58484 60.4446 0.954831 58.9255C0.324818 57.4064 0.000359034 55.778 0 54.1335V12.5162C0.000359338 10.8715 0.324797 9.24297 0.954777 7.72371C1.58476 6.20445 2.50793 4.8242 3.67154 3.66186C4.83515 2.49952 6.2164 1.57786 7.73634 0.949541C9.25629 0.321224 10.8852 -0.00142073 12.5298 1.91795e-05H18.5257C18.4689 6.39578e-06 18.4121 0 18.3553 0H112.339C112.34 6.65001e-06 112.341 1.3376e-05 112.341 2.01781e-05C112.737 0.000200276 113.131 0.0191046 113.521 0.056242C116.592 0.329212 119.081 1.57202 120.947 3.43274C121.028 3.50961 121.108 3.58766 121.187 3.66688C123.31 5.79053 124.591 8.59847 124.816 11.5723C125.048 13.1676 125.062 14.8345 124.852 16.5083Z" fill="url(#paint1_linear_329_164)"/>
<path d="M45.7217 20.3442H112.207C112.662 20.3442 113.113 20.2546 113.533 20.0804C113.954 19.9062 114.336 19.6509 114.658 19.329C114.98 19.0072 115.235 18.6251 115.409 18.2046C115.583 17.784 115.673 17.3333 115.673 16.8782C115.673 16.423 115.583 15.9723 115.409 15.5518C115.235 15.1312 114.98 14.7492 114.658 14.4273C114.336 14.1055 113.954 13.8501 113.533 13.676C113.113 13.5018 112.662 13.4121 112.207 13.4121H45.7217C41.209 13.4285 41.1706 20.325 45.7217 20.3442Z" fill="white"/>
<path d="M85.3852 36.7895H112.207C116.733 36.7703 116.747 29.8766 112.207 29.8574H85.3852C80.8615 29.8766 80.8478 36.7703 85.3852 36.7895Z" fill="white"/>
<path d="M12.6472 36.7895H69.2658C69.721 36.7895 70.1717 36.6999 70.5922 36.5257C71.0127 36.3515 71.3948 36.0962 71.7167 35.7743C72.0385 35.4525 72.2939 35.0704 72.468 34.6499C72.6422 34.2294 72.7319 33.7787 72.7319 33.3235C72.7319 32.8683 72.6422 32.4176 72.468 31.9971C72.2939 31.5766 72.0385 31.1945 71.7167 30.8726C71.3948 30.5507 71.0127 30.2955 70.5922 30.1213C70.1717 29.9471 69.721 29.8574 69.2658 29.8574H12.6472C8.14547 29.8739 8.09889 36.7703 12.6472 36.7895Z" fill="white"/>
<path d="M57.3779 53.2347H112.207C116.723 53.2183 116.753 46.3245 112.207 46.3026H57.3779C52.8624 46.3218 52.8323 53.2155 57.3779 53.2347Z" fill="white"/>
<path fill-rule="evenodd" clip-rule="evenodd" d="M300 170C309.941 170 318 161.941 318 152C318 142.059 309.941 134 300 134C290.059 134 282 142.059 282 152C282 161.941 290.059 170 300 170ZM293.525 154.288C295.025 155.826 297.2 158.055 297.772 157.851C298.079 158.328 302.717 153.691 305.657 150.754C306.948 149.463 307.912 148.5 308.035 148.443C309.323 147.18 307.353 145.274 306.058 146.522L297.772 154.571L294.089 150.992C292.79 149.741 290.825 151.653 292.112 152.913C292.302 153.034 292.844 153.59 293.525 154.288Z" fill="url(#paint2_linear_329_164)"/>
<defs>
<linearGradient id="paint0_linear_329_164" x1="9.05057" y1="134" x2="38.3108" y2="134.603" gradientUnits="userSpaceOnUse">
<stop stop-color="#5350F6"/>
<stop offset="1" stop-color="#CB88FF"/>
</linearGradient>
<linearGradient id="paint1_linear_329_164" x1="15.7753" y1="0.00037092" x2="117.323" y2="3.09586" gradientUnits="userSpaceOnUse">
<stop stop-color="#5350F6"/>
<stop offset="1" stop-color="#CB88FF"/>
</linearGradient>
<linearGradient id="paint2_linear_329_164" x1="286.543" y1="134" x2="315.804" y2="134.603" gradientUnits="userSpaceOnUse">
<stop stop-color="#5350F6"/>
<stop offset="1" stop-color="#CB88FF"/>
</linearGradient>
</defs>
</svg>
